<mxfile host="www.draw.io" modified="2020-02-12T15:55:09.237Z" agent="Mozilla/5.0 (Macintosh; Intel Mac OS X 10_14_6) AppleWebKit/605.1.15 (KHTML, like Gecko) Version/13.0.5 Safari/605.1.15" etag="f8hGQWGeP0ODfcFyxGWt" version="12.6.8" type="github">
  <diagram id="C5RBs43oDa-KdzZeNtuy" name="Page-1">
    <mxGraphModel dx="946" dy="662" grid="1" gridSize="10" guides="1" tooltips="1" connect="1" arrows="1" fold="1" page="1" pageScale="1" pageWidth="827" pageHeight="1169" math="0" shadow="0">
      <root>
        <mxCell id="WIyWlLk6GJQsqaUBKTNV-0"/>
        <mxCell id="WIyWlLk6GJQsqaUBKTNV-1" parent="WIyWlLk6GJQsqaUBKTNV-0"/>
        <mxCell id="_W-aGbbJyb8GaxxT5gk7-0" value="Customer" style="swimlane;fontStyle=0;childLayout=stackLayout;horizontal=1;startSize=26;fillColor=#e0e0e0;horizontalStack=0;resizeParent=1;resizeParentMax=0;resizeLast=0;collapsible=1;marginBottom=0;swimlaneFillColor=#ffffff;align=center;fontSize=14;" vertex="1" parent="WIyWlLk6GJQsqaUBKTNV-1">
          <mxGeometry x="30" y="50" width="160" height="160" as="geometry"/>
        </mxCell>
        <mxCell id="_W-aGbbJyb8GaxxT5gk7-1" value="Loyalty ID" style="shape=partialRectangle;top=0;left=0;right=0;bottom=1;align=left;verticalAlign=middle;fillColor=none;spacingLeft=34;spacingRight=4;overflow=hidden;rotatable=0;points=[[0,0.5],[1,0.5]];portConstraint=eastwest;dropTarget=0;fontStyle=5;fontSize=12;" vertex="1" parent="_W-aGbbJyb8GaxxT5gk7-0">
          <mxGeometry y="26" width="160" height="30" as="geometry"/>
        </mxCell>
        <mxCell id="_W-aGbbJyb8GaxxT5gk7-2" value="PK" style="shape=partialRectangle;top=0;left=0;bottom=0;fillColor=none;align=left;verticalAlign=middle;spacingLeft=4;spacingRight=4;overflow=hidden;rotatable=0;points=[];portConstraint=eastwest;part=1;fontSize=12;" vertex="1" connectable="0" parent="_W-aGbbJyb8GaxxT5gk7-1">
          <mxGeometry width="30" height="30" as="geometry"/>
        </mxCell>
        <mxCell id="_W-aGbbJyb8GaxxT5gk7-3" value="home address" style="shape=partialRectangle;top=0;left=0;right=0;bottom=0;align=left;verticalAlign=top;fillColor=none;spacingLeft=34;spacingRight=4;overflow=hidden;rotatable=0;points=[[0,0.5],[1,0.5]];portConstraint=eastwest;dropTarget=0;fontSize=12;" vertex="1" parent="_W-aGbbJyb8GaxxT5gk7-0">
          <mxGeometry y="56" width="160" height="26" as="geometry"/>
        </mxCell>
        <mxCell id="_W-aGbbJyb8GaxxT5gk7-4" value="" style="shape=partialRectangle;top=0;left=0;bottom=0;fillColor=none;align=left;verticalAlign=top;spacingLeft=4;spacingRight=4;overflow=hidden;rotatable=0;points=[];portConstraint=eastwest;part=1;fontSize=12;" vertex="1" connectable="0" parent="_W-aGbbJyb8GaxxT5gk7-3">
          <mxGeometry width="30" height="26" as="geometry"/>
        </mxCell>
        <mxCell id="_W-aGbbJyb8GaxxT5gk7-5" value="phone number" style="shape=partialRectangle;top=0;left=0;right=0;bottom=0;align=left;verticalAlign=top;fillColor=none;spacingLeft=34;spacingRight=4;overflow=hidden;rotatable=0;points=[[0,0.5],[1,0.5]];portConstraint=eastwest;dropTarget=0;fontSize=12;" vertex="1" parent="_W-aGbbJyb8GaxxT5gk7-0">
          <mxGeometry y="82" width="160" height="26" as="geometry"/>
        </mxCell>
        <mxCell id="_W-aGbbJyb8GaxxT5gk7-6" value="" style="shape=partialRectangle;top=0;left=0;bottom=0;fillColor=none;align=left;verticalAlign=top;spacingLeft=4;spacingRight=4;overflow=hidden;rotatable=0;points=[];portConstraint=eastwest;part=1;fontSize=12;" vertex="1" connectable="0" parent="_W-aGbbJyb8GaxxT5gk7-5">
          <mxGeometry width="30" height="26" as="geometry"/>
        </mxCell>
        <mxCell id="_W-aGbbJyb8GaxxT5gk7-7" value="first name" style="shape=partialRectangle;top=0;left=0;right=0;bottom=0;align=left;verticalAlign=top;fillColor=none;spacingLeft=34;spacingRight=4;overflow=hidden;rotatable=0;points=[[0,0.5],[1,0.5]];portConstraint=eastwest;dropTarget=0;fontSize=12;" vertex="1" parent="_W-aGbbJyb8GaxxT5gk7-0">
          <mxGeometry y="108" width="160" height="26" as="geometry"/>
        </mxCell>
        <mxCell id="_W-aGbbJyb8GaxxT5gk7-8" value="" style="shape=partialRectangle;top=0;left=0;bottom=0;fillColor=none;align=left;verticalAlign=top;spacingLeft=4;spacingRight=4;overflow=hidden;rotatable=0;points=[];portConstraint=eastwest;part=1;fontSize=12;" vertex="1" connectable="0" parent="_W-aGbbJyb8GaxxT5gk7-7">
          <mxGeometry width="30" height="26" as="geometry"/>
        </mxCell>
        <mxCell id="_W-aGbbJyb8GaxxT5gk7-9" value="last name&#xa;" style="shape=partialRectangle;top=0;left=0;right=0;bottom=0;align=left;verticalAlign=top;fillColor=none;spacingLeft=34;spacingRight=4;overflow=hidden;rotatable=0;points=[[0,0.5],[1,0.5]];portConstraint=eastwest;dropTarget=0;fontSize=12;" vertex="1" parent="_W-aGbbJyb8GaxxT5gk7-0">
          <mxGeometry y="134" width="160" height="26" as="geometry"/>
        </mxCell>
        <mxCell id="_W-aGbbJyb8GaxxT5gk7-10" value="" style="shape=partialRectangle;top=0;left=0;bottom=0;fillColor=none;align=left;verticalAlign=top;spacingLeft=4;spacingRight=4;overflow=hidden;rotatable=0;points=[];portConstraint=eastwest;part=1;fontSize=12;" vertex="1" connectable="0" parent="_W-aGbbJyb8GaxxT5gk7-9">
          <mxGeometry width="30" height="25.999999999999996" as="geometry"/>
        </mxCell>
        <mxCell id="_W-aGbbJyb8GaxxT5gk7-22" value="Transaction (pets)" style="swimlane;fontStyle=0;childLayout=stackLayout;horizontal=1;startSize=26;fillColor=#e0e0e0;horizontalStack=0;resizeParent=1;resizeParentMax=0;resizeLast=0;collapsible=1;marginBottom=0;swimlaneFillColor=#ffffff;align=center;fontSize=14;" vertex="1" parent="WIyWlLk6GJQsqaUBKTNV-1">
          <mxGeometry x="300" y="40" width="160" height="164" as="geometry"/>
        </mxCell>
        <mxCell id="_W-aGbbJyb8GaxxT5gk7-23" value="Transaction number" style="shape=partialRectangle;top=0;left=0;right=0;bottom=1;align=left;verticalAlign=middle;fillColor=none;spacingLeft=34;spacingRight=4;overflow=hidden;rotatable=0;points=[[0,0.5],[1,0.5]];portConstraint=eastwest;dropTarget=0;fontStyle=5;fontSize=12;" vertex="1" parent="_W-aGbbJyb8GaxxT5gk7-22">
          <mxGeometry y="26" width="160" height="30" as="geometry"/>
        </mxCell>
        <mxCell id="_W-aGbbJyb8GaxxT5gk7-24" value="PK" style="shape=partialRectangle;top=0;left=0;bottom=0;fillColor=none;align=left;verticalAlign=middle;spacingLeft=4;spacingRight=4;overflow=hidden;rotatable=0;points=[];portConstraint=eastwest;part=1;fontSize=12;" vertex="1" connectable="0" parent="_W-aGbbJyb8GaxxT5gk7-23">
          <mxGeometry width="30" height="30" as="geometry"/>
        </mxCell>
        <mxCell id="_W-aGbbJyb8GaxxT5gk7-25" value="loyalty ID" style="shape=partialRectangle;top=0;left=0;right=0;bottom=0;align=left;verticalAlign=top;fillColor=none;spacingLeft=34;spacingRight=4;overflow=hidden;rotatable=0;points=[[0,0.5],[1,0.5]];portConstraint=eastwest;dropTarget=0;fontSize=12;" vertex="1" parent="_W-aGbbJyb8GaxxT5gk7-22">
          <mxGeometry y="56" width="160" height="26" as="geometry"/>
        </mxCell>
        <mxCell id="_W-aGbbJyb8GaxxT5gk7-26" value="FK" style="shape=partialRectangle;top=0;left=0;bottom=0;fillColor=none;align=left;verticalAlign=top;spacingLeft=4;spacingRight=4;overflow=hidden;rotatable=0;points=[];portConstraint=eastwest;part=1;fontSize=12;" vertex="1" connectable="0" parent="_W-aGbbJyb8GaxxT5gk7-25">
          <mxGeometry width="30" height="26" as="geometry"/>
        </mxCell>
        <mxCell id="_W-aGbbJyb8GaxxT5gk7-27" value="amount of pets" style="shape=partialRectangle;top=0;left=0;right=0;bottom=0;align=left;verticalAlign=top;fillColor=none;spacingLeft=34;spacingRight=4;overflow=hidden;rotatable=0;points=[[0,0.5],[1,0.5]];portConstraint=eastwest;dropTarget=0;fontSize=12;" vertex="1" parent="_W-aGbbJyb8GaxxT5gk7-22">
          <mxGeometry y="82" width="160" height="26" as="geometry"/>
        </mxCell>
        <mxCell id="_W-aGbbJyb8GaxxT5gk7-28" value="" style="shape=partialRectangle;top=0;left=0;bottom=0;fillColor=none;align=left;verticalAlign=top;spacingLeft=4;spacingRight=4;overflow=hidden;rotatable=0;points=[];portConstraint=eastwest;part=1;fontSize=12;" vertex="1" connectable="0" parent="_W-aGbbJyb8GaxxT5gk7-27">
          <mxGeometry width="30" height="26" as="geometry"/>
        </mxCell>
        <mxCell id="_W-aGbbJyb8GaxxT5gk7-29" value="date/ time" style="shape=partialRectangle;top=0;left=0;right=0;bottom=0;align=left;verticalAlign=top;fillColor=none;spacingLeft=34;spacingRight=4;overflow=hidden;rotatable=0;points=[[0,0.5],[1,0.5]];portConstraint=eastwest;dropTarget=0;fontSize=12;" vertex="1" parent="_W-aGbbJyb8GaxxT5gk7-22">
          <mxGeometry y="108" width="160" height="26" as="geometry"/>
        </mxCell>
        <mxCell id="_W-aGbbJyb8GaxxT5gk7-30" value="" style="shape=partialRectangle;top=0;left=0;bottom=0;fillColor=none;align=left;verticalAlign=top;spacingLeft=4;spacingRight=4;overflow=hidden;rotatable=0;points=[];portConstraint=eastwest;part=1;fontSize=12;" vertex="1" connectable="0" parent="_W-aGbbJyb8GaxxT5gk7-29">
          <mxGeometry width="30" height="26" as="geometry"/>
        </mxCell>
        <mxCell id="_W-aGbbJyb8GaxxT5gk7-31" value="pet ID" style="shape=partialRectangle;top=0;left=0;right=0;bottom=0;align=left;verticalAlign=top;fillColor=none;spacingLeft=34;spacingRight=4;overflow=hidden;rotatable=0;points=[[0,0.5],[1,0.5]];portConstraint=eastwest;dropTarget=0;fontSize=12;" vertex="1" parent="_W-aGbbJyb8GaxxT5gk7-22">
          <mxGeometry y="134" width="160" height="30" as="geometry"/>
        </mxCell>
        <mxCell id="_W-aGbbJyb8GaxxT5gk7-32" value="FK" style="shape=partialRectangle;top=0;left=0;bottom=0;fillColor=none;align=left;verticalAlign=top;spacingLeft=4;spacingRight=4;overflow=hidden;rotatable=0;points=[];portConstraint=eastwest;part=1;fontSize=12;" vertex="1" connectable="0" parent="_W-aGbbJyb8GaxxT5gk7-31">
          <mxGeometry width="30" height="30" as="geometry"/>
        </mxCell>
        <mxCell id="_W-aGbbJyb8GaxxT5gk7-33" value="Food" style="swimlane;fontStyle=0;childLayout=stackLayout;horizontal=1;startSize=26;fillColor=#e0e0e0;horizontalStack=0;resizeParent=1;resizeParentMax=0;resizeLast=0;collapsible=1;marginBottom=0;swimlaneFillColor=#ffffff;align=center;fontSize=14;" vertex="1" parent="WIyWlLk6GJQsqaUBKTNV-1">
          <mxGeometry x="560" y="279" width="160" height="158" as="geometry"/>
        </mxCell>
        <mxCell id="_W-aGbbJyb8GaxxT5gk7-34" value="Bar code" style="shape=partialRectangle;top=0;left=0;right=0;bottom=1;align=left;verticalAlign=middle;fillColor=none;spacingLeft=34;spacingRight=4;overflow=hidden;rotatable=0;points=[[0,0.5],[1,0.5]];portConstraint=eastwest;dropTarget=0;fontStyle=5;fontSize=12;" vertex="1" parent="_W-aGbbJyb8GaxxT5gk7-33">
          <mxGeometry y="26" width="160" height="30" as="geometry"/>
        </mxCell>
        <mxCell id="_W-aGbbJyb8GaxxT5gk7-35" value="PK" style="shape=partialRectangle;top=0;left=0;bottom=0;fillColor=none;align=left;verticalAlign=middle;spacingLeft=4;spacingRight=4;overflow=hidden;rotatable=0;points=[];portConstraint=eastwest;part=1;fontSize=12;" vertex="1" connectable="0" parent="_W-aGbbJyb8GaxxT5gk7-34">
          <mxGeometry width="30" height="30" as="geometry"/>
        </mxCell>
        <mxCell id="_W-aGbbJyb8GaxxT5gk7-36" value="type" style="shape=partialRectangle;top=0;left=0;right=0;bottom=0;align=left;verticalAlign=top;fillColor=none;spacingLeft=34;spacingRight=4;overflow=hidden;rotatable=0;points=[[0,0.5],[1,0.5]];portConstraint=eastwest;dropTarget=0;fontSize=12;" vertex="1" parent="_W-aGbbJyb8GaxxT5gk7-33">
          <mxGeometry y="56" width="160" height="26" as="geometry"/>
        </mxCell>
        <mxCell id="_W-aGbbJyb8GaxxT5gk7-37" value="" style="shape=partialRectangle;top=0;left=0;bottom=0;fillColor=none;align=left;verticalAlign=top;spacingLeft=4;spacingRight=4;overflow=hidden;rotatable=0;points=[];portConstraint=eastwest;part=1;fontSize=12;" vertex="1" connectable="0" parent="_W-aGbbJyb8GaxxT5gk7-36">
          <mxGeometry width="30" height="26" as="geometry"/>
        </mxCell>
        <mxCell id="_W-aGbbJyb8GaxxT5gk7-38" value="ingredients" style="shape=partialRectangle;top=0;left=0;right=0;bottom=0;align=left;verticalAlign=top;fillColor=none;spacingLeft=34;spacingRight=4;overflow=hidden;rotatable=0;points=[[0,0.5],[1,0.5]];portConstraint=eastwest;dropTarget=0;fontSize=12;" vertex="1" parent="_W-aGbbJyb8GaxxT5gk7-33">
          <mxGeometry y="82" width="160" height="26" as="geometry"/>
        </mxCell>
        <mxCell id="_W-aGbbJyb8GaxxT5gk7-39" value="" style="shape=partialRectangle;top=0;left=0;bottom=0;fillColor=none;align=left;verticalAlign=top;spacingLeft=4;spacingRight=4;overflow=hidden;rotatable=0;points=[];portConstraint=eastwest;part=1;fontSize=12;" vertex="1" connectable="0" parent="_W-aGbbJyb8GaxxT5gk7-38">
          <mxGeometry width="30" height="26" as="geometry"/>
        </mxCell>
        <mxCell id="_W-aGbbJyb8GaxxT5gk7-40" value="target age group" style="shape=partialRectangle;top=0;left=0;right=0;bottom=0;align=left;verticalAlign=top;fillColor=none;spacingLeft=34;spacingRight=4;overflow=hidden;rotatable=0;points=[[0,0.5],[1,0.5]];portConstraint=eastwest;dropTarget=0;fontSize=12;" vertex="1" parent="_W-aGbbJyb8GaxxT5gk7-33">
          <mxGeometry y="108" width="160" height="26" as="geometry"/>
        </mxCell>
        <mxCell id="_W-aGbbJyb8GaxxT5gk7-41" value="" style="shape=partialRectangle;top=0;left=0;bottom=0;fillColor=none;align=left;verticalAlign=top;spacingLeft=4;spacingRight=4;overflow=hidden;rotatable=0;points=[];portConstraint=eastwest;part=1;fontSize=12;" vertex="1" connectable="0" parent="_W-aGbbJyb8GaxxT5gk7-40">
          <mxGeometry width="30" height="26" as="geometry"/>
        </mxCell>
        <mxCell id="_W-aGbbJyb8GaxxT5gk7-42" value="amount in bag" style="shape=partialRectangle;top=0;left=0;right=0;bottom=0;align=left;verticalAlign=top;fillColor=none;spacingLeft=34;spacingRight=4;overflow=hidden;rotatable=0;points=[[0,0.5],[1,0.5]];portConstraint=eastwest;dropTarget=0;fontSize=12;" vertex="1" parent="_W-aGbbJyb8GaxxT5gk7-33">
          <mxGeometry y="134" width="160" height="24" as="geometry"/>
        </mxCell>
        <mxCell id="_W-aGbbJyb8GaxxT5gk7-43" value="" style="shape=partialRectangle;top=0;left=0;bottom=0;fillColor=none;align=left;verticalAlign=top;spacingLeft=4;spacingRight=4;overflow=hidden;rotatable=0;points=[];portConstraint=eastwest;part=1;fontSize=12;" vertex="1" connectable="0" parent="_W-aGbbJyb8GaxxT5gk7-42">
          <mxGeometry width="30" height="24" as="geometry"/>
        </mxCell>
        <mxCell id="_W-aGbbJyb8GaxxT5gk7-44" value="Enclosures" style="swimlane;fontStyle=0;childLayout=stackLayout;horizontal=1;startSize=26;fillColor=#e0e0e0;horizontalStack=0;resizeParent=1;resizeParentMax=0;resizeLast=0;collapsible=1;marginBottom=0;swimlaneFillColor=#ffffff;align=center;fontSize=14;" vertex="1" parent="WIyWlLk6GJQsqaUBKTNV-1">
          <mxGeometry x="30" y="288" width="160" height="144" as="geometry"/>
        </mxCell>
        <mxCell id="_W-aGbbJyb8GaxxT5gk7-45" value="Enclosure number" style="shape=partialRectangle;top=0;left=0;right=0;bottom=1;align=left;verticalAlign=middle;fillColor=none;spacingLeft=34;spacingRight=4;overflow=hidden;rotatable=0;points=[[0,0.5],[1,0.5]];portConstraint=eastwest;dropTarget=0;fontStyle=5;fontSize=12;" vertex="1" parent="_W-aGbbJyb8GaxxT5gk7-44">
          <mxGeometry y="26" width="160" height="30" as="geometry"/>
        </mxCell>
        <mxCell id="_W-aGbbJyb8GaxxT5gk7-46" value="PK" style="shape=partialRectangle;top=0;left=0;bottom=0;fillColor=none;align=left;verticalAlign=middle;spacingLeft=4;spacingRight=4;overflow=hidden;rotatable=0;points=[];portConstraint=eastwest;part=1;fontSize=12;" vertex="1" connectable="0" parent="_W-aGbbJyb8GaxxT5gk7-45">
          <mxGeometry width="30" height="30" as="geometry"/>
        </mxCell>
        <mxCell id="_W-aGbbJyb8GaxxT5gk7-47" value="location" style="shape=partialRectangle;top=0;left=0;right=0;bottom=0;align=left;verticalAlign=top;fillColor=none;spacingLeft=34;spacingRight=4;overflow=hidden;rotatable=0;points=[[0,0.5],[1,0.5]];portConstraint=eastwest;dropTarget=0;fontSize=12;" vertex="1" parent="_W-aGbbJyb8GaxxT5gk7-44">
          <mxGeometry y="56" width="160" height="26" as="geometry"/>
        </mxCell>
        <mxCell id="_W-aGbbJyb8GaxxT5gk7-48" value="" style="shape=partialRectangle;top=0;left=0;bottom=0;fillColor=none;align=left;verticalAlign=top;spacingLeft=4;spacingRight=4;overflow=hidden;rotatable=0;points=[];portConstraint=eastwest;part=1;fontSize=12;" vertex="1" connectable="0" parent="_W-aGbbJyb8GaxxT5gk7-47">
          <mxGeometry width="30" height="26" as="geometry"/>
        </mxCell>
        <mxCell id="_W-aGbbJyb8GaxxT5gk7-49" value="size" style="shape=partialRectangle;top=0;left=0;right=0;bottom=0;align=left;verticalAlign=top;fillColor=none;spacingLeft=34;spacingRight=4;overflow=hidden;rotatable=0;points=[[0,0.5],[1,0.5]];portConstraint=eastwest;dropTarget=0;fontSize=12;" vertex="1" parent="_W-aGbbJyb8GaxxT5gk7-44">
          <mxGeometry y="82" width="160" height="26" as="geometry"/>
        </mxCell>
        <mxCell id="_W-aGbbJyb8GaxxT5gk7-50" value="" style="shape=partialRectangle;top=0;left=0;bottom=0;fillColor=none;align=left;verticalAlign=top;spacingLeft=4;spacingRight=4;overflow=hidden;rotatable=0;points=[];portConstraint=eastwest;part=1;fontSize=12;" vertex="1" connectable="0" parent="_W-aGbbJyb8GaxxT5gk7-49">
          <mxGeometry width="30" height="26" as="geometry"/>
        </mxCell>
        <mxCell id="_W-aGbbJyb8GaxxT5gk7-51" value="number of pets inside" style="shape=partialRectangle;top=0;left=0;right=0;bottom=0;align=left;verticalAlign=top;fillColor=none;spacingLeft=34;spacingRight=4;overflow=hidden;rotatable=0;points=[[0,0.5],[1,0.5]];portConstraint=eastwest;dropTarget=0;fontSize=12;" vertex="1" parent="_W-aGbbJyb8GaxxT5gk7-44">
          <mxGeometry y="108" width="160" height="26" as="geometry"/>
        </mxCell>
        <mxCell id="_W-aGbbJyb8GaxxT5gk7-52" value="" style="shape=partialRectangle;top=0;left=0;bottom=0;fillColor=none;align=left;verticalAlign=top;spacingLeft=4;spacingRight=4;overflow=hidden;rotatable=0;points=[];portConstraint=eastwest;part=1;fontSize=12;" vertex="1" connectable="0" parent="_W-aGbbJyb8GaxxT5gk7-51">
          <mxGeometry width="30" height="26" as="geometry"/>
        </mxCell>
        <mxCell id="_W-aGbbJyb8GaxxT5gk7-53" value="" style="shape=partialRectangle;top=0;left=0;right=0;bottom=0;align=left;verticalAlign=top;fillColor=none;spacingLeft=34;spacingRight=4;overflow=hidden;rotatable=0;points=[[0,0.5],[1,0.5]];portConstraint=eastwest;dropTarget=0;fontSize=12;" vertex="1" parent="_W-aGbbJyb8GaxxT5gk7-44">
          <mxGeometry y="134" width="160" height="10" as="geometry"/>
        </mxCell>
        <mxCell id="_W-aGbbJyb8GaxxT5gk7-54" value="" style="shape=partialRectangle;top=0;left=0;bottom=0;fillColor=none;align=left;verticalAlign=top;spacingLeft=4;spacingRight=4;overflow=hidden;rotatable=0;points=[];portConstraint=eastwest;part=1;fontSize=12;" vertex="1" connectable="0" parent="_W-aGbbJyb8GaxxT5gk7-53">
          <mxGeometry width="30" height="10" as="geometry"/>
        </mxCell>
        <mxCell id="_W-aGbbJyb8GaxxT5gk7-55" value="Pets" style="swimlane;fontStyle=0;childLayout=stackLayout;horizontal=1;startSize=26;fillColor=#e0e0e0;horizontalStack=0;resizeParent=1;resizeParentMax=0;resizeLast=0;collapsible=1;marginBottom=0;swimlaneFillColor=#ffffff;align=center;fontSize=14;" vertex="1" parent="WIyWlLk6GJQsqaUBKTNV-1">
          <mxGeometry x="300" y="279" width="170" height="162" as="geometry"/>
        </mxCell>
        <mxCell id="_W-aGbbJyb8GaxxT5gk7-56" value="Pet ID" style="shape=partialRectangle;top=0;left=0;right=0;bottom=1;align=left;verticalAlign=middle;fillColor=none;spacingLeft=34;spacingRight=4;overflow=hidden;rotatable=0;points=[[0,0.5],[1,0.5]];portConstraint=eastwest;dropTarget=0;fontStyle=5;fontSize=12;" vertex="1" parent="_W-aGbbJyb8GaxxT5gk7-55">
          <mxGeometry y="26" width="170" height="30" as="geometry"/>
        </mxCell>
        <mxCell id="_W-aGbbJyb8GaxxT5gk7-57" value="PK" style="shape=partialRectangle;top=0;left=0;bottom=0;fillColor=none;align=left;verticalAlign=middle;spacingLeft=4;spacingRight=4;overflow=hidden;rotatable=0;points=[];portConstraint=eastwest;part=1;fontSize=12;" vertex="1" connectable="0" parent="_W-aGbbJyb8GaxxT5gk7-56">
          <mxGeometry width="30" height="30" as="geometry"/>
        </mxCell>
        <mxCell id="_W-aGbbJyb8GaxxT5gk7-58" value="breed" style="shape=partialRectangle;top=0;left=0;right=0;bottom=0;align=left;verticalAlign=top;fillColor=none;spacingLeft=34;spacingRight=4;overflow=hidden;rotatable=0;points=[[0,0.5],[1,0.5]];portConstraint=eastwest;dropTarget=0;fontSize=12;" vertex="1" parent="_W-aGbbJyb8GaxxT5gk7-55">
          <mxGeometry y="56" width="170" height="26" as="geometry"/>
        </mxCell>
        <mxCell id="_W-aGbbJyb8GaxxT5gk7-59" value="" style="shape=partialRectangle;top=0;left=0;bottom=0;fillColor=none;align=left;verticalAlign=top;spacingLeft=4;spacingRight=4;overflow=hidden;rotatable=0;points=[];portConstraint=eastwest;part=1;fontSize=12;" vertex="1" connectable="0" parent="_W-aGbbJyb8GaxxT5gk7-58">
          <mxGeometry width="30" height="26" as="geometry"/>
        </mxCell>
        <mxCell id="_W-aGbbJyb8GaxxT5gk7-60" value="age" style="shape=partialRectangle;top=0;left=0;right=0;bottom=0;align=left;verticalAlign=top;fillColor=none;spacingLeft=34;spacingRight=4;overflow=hidden;rotatable=0;points=[[0,0.5],[1,0.5]];portConstraint=eastwest;dropTarget=0;fontSize=12;" vertex="1" parent="_W-aGbbJyb8GaxxT5gk7-55">
          <mxGeometry y="82" width="170" height="26" as="geometry"/>
        </mxCell>
        <mxCell id="_W-aGbbJyb8GaxxT5gk7-61" value="" style="shape=partialRectangle;top=0;left=0;bottom=0;fillColor=none;align=left;verticalAlign=top;spacingLeft=4;spacingRight=4;overflow=hidden;rotatable=0;points=[];portConstraint=eastwest;part=1;fontSize=12;" vertex="1" connectable="0" parent="_W-aGbbJyb8GaxxT5gk7-60">
          <mxGeometry width="30" height="26" as="geometry"/>
        </mxCell>
        <mxCell id="_W-aGbbJyb8GaxxT5gk7-62" value="amount of time in store" style="shape=partialRectangle;top=0;left=0;right=0;bottom=0;align=left;verticalAlign=top;fillColor=none;spacingLeft=34;spacingRight=4;overflow=hidden;rotatable=0;points=[[0,0.5],[1,0.5]];portConstraint=eastwest;dropTarget=0;fontSize=12;" vertex="1" parent="_W-aGbbJyb8GaxxT5gk7-55">
          <mxGeometry y="108" width="170" height="26" as="geometry"/>
        </mxCell>
        <mxCell id="_W-aGbbJyb8GaxxT5gk7-63" value="" style="shape=partialRectangle;top=0;left=0;bottom=0;fillColor=none;align=left;verticalAlign=top;spacingLeft=4;spacingRight=4;overflow=hidden;rotatable=0;points=[];portConstraint=eastwest;part=1;fontSize=12;" vertex="1" connectable="0" parent="_W-aGbbJyb8GaxxT5gk7-62">
          <mxGeometry width="30" height="26" as="geometry"/>
        </mxCell>
        <mxCell id="_W-aGbbJyb8GaxxT5gk7-64" value="enclosure number" style="shape=partialRectangle;top=0;left=0;right=0;bottom=0;align=left;verticalAlign=top;fillColor=none;spacingLeft=34;spacingRight=4;overflow=hidden;rotatable=0;points=[[0,0.5],[1,0.5]];portConstraint=eastwest;dropTarget=0;fontSize=12;" vertex="1" parent="_W-aGbbJyb8GaxxT5gk7-55">
          <mxGeometry y="134" width="170" height="28" as="geometry"/>
        </mxCell>
        <mxCell id="_W-aGbbJyb8GaxxT5gk7-65" value="FK" style="shape=partialRectangle;top=0;left=0;bottom=0;fillColor=none;align=left;verticalAlign=top;spacingLeft=4;spacingRight=4;overflow=hidden;rotatable=0;points=[];portConstraint=eastwest;part=1;fontSize=12;" vertex="1" connectable="0" parent="_W-aGbbJyb8GaxxT5gk7-64">
          <mxGeometry width="30" height="28" as="geometry"/>
        </mxCell>
        <mxCell id="_W-aGbbJyb8GaxxT5gk7-69" value="" style="endArrow=classic;html=1;exitX=1;exitY=0.5;exitDx=0;exitDy=0;entryX=0;entryY=0.5;entryDx=0;entryDy=0;" edge="1" parent="WIyWlLk6GJQsqaUBKTNV-1" source="_W-aGbbJyb8GaxxT5gk7-1" target="_W-aGbbJyb8GaxxT5gk7-25">
          <mxGeometry width="50" height="50" relative="1" as="geometry">
            <mxPoint x="30" y="540" as="sourcePoint"/>
            <mxPoint x="80" y="490" as="targetPoint"/>
          </mxGeometry>
        </mxCell>
        <mxCell id="_W-aGbbJyb8GaxxT5gk7-70" value="" style="endArrow=classic;html=1;exitX=1;exitY=0.5;exitDx=0;exitDy=0;entryX=0;entryY=0.5;entryDx=0;entryDy=0;" edge="1" parent="WIyWlLk6GJQsqaUBKTNV-1" source="_W-aGbbJyb8GaxxT5gk7-25" target="_W-aGbbJyb8GaxxT5gk7-77">
          <mxGeometry width="50" height="50" relative="1" as="geometry">
            <mxPoint x="30" y="540" as="sourcePoint"/>
            <mxPoint x="80" y="490" as="targetPoint"/>
          </mxGeometry>
        </mxCell>
        <mxCell id="_W-aGbbJyb8GaxxT5gk7-73" value="" style="endArrow=classic;html=1;exitX=1;exitY=0.5;exitDx=0;exitDy=0;entryX=1;entryY=0.5;entryDx=0;entryDy=0;rounded=0;" edge="1" parent="WIyWlLk6GJQsqaUBKTNV-1" source="_W-aGbbJyb8GaxxT5gk7-31" target="_W-aGbbJyb8GaxxT5gk7-56">
          <mxGeometry width="50" height="50" relative="1" as="geometry">
            <mxPoint x="30" y="540" as="sourcePoint"/>
            <mxPoint x="80" y="490" as="targetPoint"/>
            <Array as="points">
              <mxPoint x="490" y="190"/>
              <mxPoint x="490" y="250"/>
              <mxPoint x="490" y="320"/>
            </Array>
          </mxGeometry>
        </mxCell>
        <mxCell id="_W-aGbbJyb8GaxxT5gk7-74" value="Transaction (food)" style="swimlane;fontStyle=0;childLayout=stackLayout;horizontal=1;startSize=26;fillColor=#e0e0e0;horizontalStack=0;resizeParent=1;resizeParentMax=0;resizeLast=0;collapsible=1;marginBottom=0;swimlaneFillColor=#ffffff;align=center;fontSize=14;" vertex="1" parent="WIyWlLk6GJQsqaUBKTNV-1">
          <mxGeometry x="550" y="46" width="160" height="158" as="geometry"/>
        </mxCell>
        <mxCell id="_W-aGbbJyb8GaxxT5gk7-75" value="Transaction number" style="shape=partialRectangle;top=0;left=0;right=0;bottom=1;align=left;verticalAlign=middle;fillColor=none;spacingLeft=34;spacingRight=4;overflow=hidden;rotatable=0;points=[[0,0.5],[1,0.5]];portConstraint=eastwest;dropTarget=0;fontStyle=5;fontSize=12;" vertex="1" parent="_W-aGbbJyb8GaxxT5gk7-74">
          <mxGeometry y="26" width="160" height="30" as="geometry"/>
        </mxCell>
        <mxCell id="_W-aGbbJyb8GaxxT5gk7-76" value="PK" style="shape=partialRectangle;top=0;left=0;bottom=0;fillColor=none;align=left;verticalAlign=middle;spacingLeft=4;spacingRight=4;overflow=hidden;rotatable=0;points=[];portConstraint=eastwest;part=1;fontSize=12;" vertex="1" connectable="0" parent="_W-aGbbJyb8GaxxT5gk7-75">
          <mxGeometry width="30" height="30" as="geometry"/>
        </mxCell>
        <mxCell id="_W-aGbbJyb8GaxxT5gk7-77" value="loyalty ID" style="shape=partialRectangle;top=0;left=0;right=0;bottom=0;align=left;verticalAlign=top;fillColor=none;spacingLeft=34;spacingRight=4;overflow=hidden;rotatable=0;points=[[0,0.5],[1,0.5]];portConstraint=eastwest;dropTarget=0;fontSize=12;" vertex="1" parent="_W-aGbbJyb8GaxxT5gk7-74">
          <mxGeometry y="56" width="160" height="26" as="geometry"/>
        </mxCell>
        <mxCell id="_W-aGbbJyb8GaxxT5gk7-78" value="FK" style="shape=partialRectangle;top=0;left=0;bottom=0;fillColor=none;align=left;verticalAlign=top;spacingLeft=4;spacingRight=4;overflow=hidden;rotatable=0;points=[];portConstraint=eastwest;part=1;fontSize=12;" vertex="1" connectable="0" parent="_W-aGbbJyb8GaxxT5gk7-77">
          <mxGeometry width="30" height="26" as="geometry"/>
        </mxCell>
        <mxCell id="_W-aGbbJyb8GaxxT5gk7-79" value="amount of food" style="shape=partialRectangle;top=0;left=0;right=0;bottom=0;align=left;verticalAlign=top;fillColor=none;spacingLeft=34;spacingRight=4;overflow=hidden;rotatable=0;points=[[0,0.5],[1,0.5]];portConstraint=eastwest;dropTarget=0;fontSize=12;" vertex="1" parent="_W-aGbbJyb8GaxxT5gk7-74">
          <mxGeometry y="82" width="160" height="26" as="geometry"/>
        </mxCell>
        <mxCell id="_W-aGbbJyb8GaxxT5gk7-80" value="" style="shape=partialRectangle;top=0;left=0;bottom=0;fillColor=none;align=left;verticalAlign=top;spacingLeft=4;spacingRight=4;overflow=hidden;rotatable=0;points=[];portConstraint=eastwest;part=1;fontSize=12;" vertex="1" connectable="0" parent="_W-aGbbJyb8GaxxT5gk7-79">
          <mxGeometry width="30" height="26" as="geometry"/>
        </mxCell>
        <mxCell id="_W-aGbbJyb8GaxxT5gk7-81" value="date/ time" style="shape=partialRectangle;top=0;left=0;right=0;bottom=0;align=left;verticalAlign=top;fillColor=none;spacingLeft=34;spacingRight=4;overflow=hidden;rotatable=0;points=[[0,0.5],[1,0.5]];portConstraint=eastwest;dropTarget=0;fontSize=12;" vertex="1" parent="_W-aGbbJyb8GaxxT5gk7-74">
          <mxGeometry y="108" width="160" height="26" as="geometry"/>
        </mxCell>
        <mxCell id="_W-aGbbJyb8GaxxT5gk7-82" value="" style="shape=partialRectangle;top=0;left=0;bottom=0;fillColor=none;align=left;verticalAlign=top;spacingLeft=4;spacingRight=4;overflow=hidden;rotatable=0;points=[];portConstraint=eastwest;part=1;fontSize=12;" vertex="1" connectable="0" parent="_W-aGbbJyb8GaxxT5gk7-81">
          <mxGeometry width="30" height="26" as="geometry"/>
        </mxCell>
        <mxCell id="_W-aGbbJyb8GaxxT5gk7-83" value="bar code" style="shape=partialRectangle;top=0;left=0;right=0;bottom=0;align=left;verticalAlign=top;fillColor=none;spacingLeft=34;spacingRight=4;overflow=hidden;rotatable=0;points=[[0,0.5],[1,0.5]];portConstraint=eastwest;dropTarget=0;fontSize=12;" vertex="1" parent="_W-aGbbJyb8GaxxT5gk7-74">
          <mxGeometry y="134" width="160" height="24" as="geometry"/>
        </mxCell>
        <mxCell id="_W-aGbbJyb8GaxxT5gk7-84" value="FK" style="shape=partialRectangle;top=0;left=0;bottom=0;fillColor=none;align=left;verticalAlign=top;spacingLeft=4;spacingRight=4;overflow=hidden;rotatable=0;points=[];portConstraint=eastwest;part=1;fontSize=12;" vertex="1" connectable="0" parent="_W-aGbbJyb8GaxxT5gk7-83">
          <mxGeometry width="30" height="24" as="geometry"/>
        </mxCell>
        <mxCell id="_W-aGbbJyb8GaxxT5gk7-87" value="" style="endArrow=classic;html=1;entryX=0;entryY=0.5;entryDx=0;entryDy=0;exitX=1;exitY=0.5;exitDx=0;exitDy=0;rounded=0;" edge="1" parent="WIyWlLk6GJQsqaUBKTNV-1" source="_W-aGbbJyb8GaxxT5gk7-45" target="_W-aGbbJyb8GaxxT5gk7-64">
          <mxGeometry width="50" height="50" relative="1" as="geometry">
            <mxPoint x="30" y="510" as="sourcePoint"/>
            <mxPoint x="80" y="460" as="targetPoint"/>
            <Array as="points">
              <mxPoint x="250" y="329"/>
              <mxPoint x="250" y="427"/>
            </Array>
          </mxGeometry>
        </mxCell>
        <mxCell id="_W-aGbbJyb8GaxxT5gk7-89" value="" style="endArrow=classic;html=1;exitX=0;exitY=0.5;exitDx=0;exitDy=0;entryX=0;entryY=0.5;entryDx=0;entryDy=0;rounded=0;" edge="1" parent="WIyWlLk6GJQsqaUBKTNV-1" source="_W-aGbbJyb8GaxxT5gk7-83" target="_W-aGbbJyb8GaxxT5gk7-34">
          <mxGeometry width="50" height="50" relative="1" as="geometry">
            <mxPoint x="30" y="510" as="sourcePoint"/>
            <mxPoint x="80" y="460" as="targetPoint"/>
            <Array as="points">
              <mxPoint x="540" y="192"/>
              <mxPoint x="540" y="320"/>
            </Array>
          </mxGeometry>
        </mxCell>
      </root>
    </mxGraphModel>
  </diagram>
</mxfile>
